# xmcd CD database file
#
# Track frame offsets:
#	150
#	30690
#	71382
#	97280
#	166037
#	189960
#	213390
#	238097
#	261027
#	272505
#	316725
#
# Disc length: 4443 seconds
#
# Revision: 2
# Processed by: cddbd v1.5.2PL0 Copyright (c) Steve Scherf et al.
# Submitted via: CDex 1.51
#
DISCID=9011590b
DTITLE=Pat Metheny Group - The Road To You
DYEAR=1993
DGENRE=Jazz
TTITLE0=Have You Heard
TTITLE1=First Circle
TTITLE2=The Road To You
TTITLE3=Half Life Of Absolution
TTITLE4=Last Train Home
TTITLE5=Better Days Ahead
TTITLE6=Naked Moon
TTITLE7=Beat 70
TTITLE8=Letter From Home
TTITLE9=Third Wind
TTITLE10=Solo From "More Travels"
EXTD=YEAR: 1993
EXTT0=
EXTT1=
EXTT2=
EXTT3=
EXTT4=
EXTT5=
EXTT6=
EXTT7=
EXTT8=
EXTT9=
EXTT10=
PLAYORDER=
